<mxfile host="app.diagrams.net" modified="2020-11-26T11:25:13.000Z" agent="5.0 (Macintosh; Intel Mac OS X 10_15_7) AppleWebKit/537.36 (KHTML, like Gecko) Chrome/86.0.4240.111 Safari/537.36" etag="HPnmmv3QaLIZPcdID_Rh" version="13.10.3" type="github">
  <diagram id="SiUr1opav0LP8OOZN8zk" name="Page-1">
    <mxGraphModel dx="832" dy="528" grid="1" gridSize="10" guides="1" tooltips="1" connect="1" arrows="1" fold="1" page="1" pageScale="1" pageWidth="827" pageHeight="1169" math="0" shadow="0">
      <root>
        <mxCell id="0" />
        <mxCell id="1" parent="0" />
        <mxCell id="Zhue6jqqJ38dNp_qqgrJ-1" value="&lt;b&gt;beerListItem&lt;br&gt;&lt;/b&gt;props:&lt;br&gt;- beers&lt;br&gt;(name, image_url)" style="rounded=0;whiteSpace=wrap;html=1;" vertex="1" parent="1">
          <mxGeometry x="360" y="300" width="190" height="70" as="geometry" />
        </mxCell>
        <mxCell id="Zhue6jqqJ38dNp_qqgrJ-2" value="&lt;b&gt;app.vue&lt;br&gt;&lt;/b&gt;state:&lt;br&gt;- list of all beers&lt;br&gt;- selected beer&lt;br&gt;- favourite beers [] false" style="rounded=0;whiteSpace=wrap;html=1;" vertex="1" parent="1">
          <mxGeometry x="360" y="40" width="190" height="100" as="geometry" />
        </mxCell>
        <mxCell id="Zhue6jqqJ38dNp_qqgrJ-3" value="&lt;b&gt;beersList.vue&lt;br&gt;&lt;/b&gt;props:&lt;br&gt;- beers" style="rounded=0;whiteSpace=wrap;html=1;" vertex="1" parent="1">
          <mxGeometry x="360" y="180" width="190" height="70" as="geometry" />
        </mxCell>
        <mxCell id="Zhue6jqqJ38dNp_qqgrJ-4" value="" style="endArrow=classic;html=1;entryX=0.5;entryY=0;entryDx=0;entryDy=0;exitX=0.5;exitY=1;exitDx=0;exitDy=0;" edge="1" parent="1" source="Zhue6jqqJ38dNp_qqgrJ-2" target="Zhue6jqqJ38dNp_qqgrJ-3">
          <mxGeometry width="50" height="50" relative="1" as="geometry">
            <mxPoint x="390" y="280" as="sourcePoint" />
            <mxPoint x="440" y="230" as="targetPoint" />
          </mxGeometry>
        </mxCell>
        <mxCell id="Zhue6jqqJ38dNp_qqgrJ-5" value="" style="endArrow=classic;html=1;entryX=0.5;entryY=0;entryDx=0;entryDy=0;exitX=0.5;exitY=1;exitDx=0;exitDy=0;" edge="1" parent="1" source="Zhue6jqqJ38dNp_qqgrJ-3" target="Zhue6jqqJ38dNp_qqgrJ-1">
          <mxGeometry width="50" height="50" relative="1" as="geometry">
            <mxPoint x="390" y="280" as="sourcePoint" />
            <mxPoint x="440" y="230" as="targetPoint" />
          </mxGeometry>
        </mxCell>
        <mxCell id="Zhue6jqqJ38dNp_qqgrJ-6" value="&lt;b&gt;favouriteBeers&lt;br&gt;&lt;/b&gt;props:&lt;br&gt;- beers&lt;br&gt;(favourite [] = Boolean True)" style="rounded=0;whiteSpace=wrap;html=1;" vertex="1" parent="1">
          <mxGeometry x="360" y="410" width="190" height="70" as="geometry" />
        </mxCell>
        <mxCell id="Zhue6jqqJ38dNp_qqgrJ-7" value="" style="endArrow=classic;html=1;entryX=0.5;entryY=0;entryDx=0;entryDy=0;exitX=0.5;exitY=1;exitDx=0;exitDy=0;" edge="1" parent="1" source="Zhue6jqqJ38dNp_qqgrJ-1" target="Zhue6jqqJ38dNp_qqgrJ-6">
          <mxGeometry width="50" height="50" relative="1" as="geometry">
            <mxPoint x="390" y="280" as="sourcePoint" />
            <mxPoint x="440" y="230" as="targetPoint" />
          </mxGeometry>
        </mxCell>
        <mxCell id="Zhue6jqqJ38dNp_qqgrJ-8" value="" style="curved=1;endArrow=classic;html=1;exitX=0;exitY=0.5;exitDx=0;exitDy=0;entryX=0;entryY=0.5;entryDx=0;entryDy=0;" edge="1" parent="1" source="Zhue6jqqJ38dNp_qqgrJ-6" target="Zhue6jqqJ38dNp_qqgrJ-2">
          <mxGeometry width="50" height="50" relative="1" as="geometry">
            <mxPoint x="390" y="270" as="sourcePoint" />
            <mxPoint x="440" y="220" as="targetPoint" />
            <Array as="points">
              <mxPoint x="250" y="250" />
              <mxPoint x="270" y="110" />
            </Array>
          </mxGeometry>
        </mxCell>
      </root>
    </mxGraphModel>
  </diagram>
</mxfile>
